<svg xmlns="http://www.w3.org/2000/svg" version="1.1" xmlns:xlink="http://www.w3.org/1999/xlink" xmlns:svgjs="http://svgjs.dev/svgjs" width="1500" height="935" viewBox="0 0 1500 935"><g transform="matrix(1,0,0,1,-0.9090909090909918,0.3785425101214628)"><svg viewBox="0 0 396 247" data-background-color="#463746" preserveAspectRatio="xMidYMid meet" height="935" width="1500" xmlns="http://www.w3.org/2000/svg" xmlns:xlink="http://www.w3.org/1999/xlink"><g id="tight-bounds" transform="matrix(1,0,0,1,0.2400000000000091,-0.09999999999999432)"><svg viewBox="0 0 395.52 247.2" height="247.2" width="395.52"><g><svg></svg></g><g><svg viewBox="0 0 395.52 247.2" height="247.2" width="395.52"><g transform="matrix(1,0,0,1,118.19749638932495,47.215199999999996)"><svg viewBox="0 0 159.12500722135007 152.7696" height="152.7696" width="159.12500722135007"><g><svg viewBox="0 0 159.12500722135007 152.7696" height="152.7696" width="159.12500722135007"><g><svg viewBox="0 0 159.12500722135007 152.7696" height="152.7696" width="159.12500722135007"><g><svg viewBox="0 0 159.12500722135007 152.7696" height="152.7696" width="159.12500722135007"><g id="textblocktransform"><svg viewBox="0 0 159.12500722135007 152.7696" height="152.7696" width="159.12500722135007" id="textblock"><g><svg viewBox="0 0 159.12500722135007 152.7696" height="152.7696" width="159.12500722135007"><g transform="matrix(1,0,0,1,0,0)"><svg width="159.12500722135007" viewBox="4.88 -31.85 33.169999999999995 31.85" height="152.7696" data-palette-color="#ffffff"><path d="M4.88 0L4.88-31.85 11.7-31.85 21.8-10.93 21.35-10.93 31.45-31.85 38.05-31.85 38.05 0 33.25 0 33.25-26.63 34.02-26.63 23.13-3.78 20-3.78 9.15-26.5 9.63-26.5 9.63 0 4.88 0Z" opacity="1" transform="matrix(1,0,0,1,0,0)" fill="#ffffff" class="wordmark-text-0" data-fill-palette-color="primary" id="text-0"></path></svg></g></svg></g></svg></g></svg></g></svg></g></svg></g></svg></g><g><path d="M203.162 0c30.402 0 58.24 10.976 79.769 29.183l-11.147 0c-19.26-14.022-42.974-22.294-68.622-22.295-25.647 0-49.361 8.272-68.621 22.295l-11.147 0c21.528-18.206 49.366-29.183 79.768-29.183zM326.762 123.6c0 18.034-3.862 35.166-10.805 50.614v-20.521c2.555-9.601 3.917-19.688 3.917-30.093 0-10.405-1.362-20.493-3.917-30.093v-20.521c6.943 15.448 10.805 32.58 10.805 50.614zM203.162 247.2c-30.402 0-58.24-10.976-79.768-29.183l11.147 0c19.26 14.022 42.974 22.294 68.622 22.295 25.647 0 49.361-8.272 68.621-22.295l11.147 0c-21.528 18.206-49.366 29.183-79.768 29.183z" fill="#ffffff" stroke="transparent" data-fill-palette-color="tertiary"></path></g></svg></g><defs></defs></svg><rect width="395.52" height="247.2" fill="none" stroke="none" visibility="hidden"></rect></g></svg></g></svg>